<?xml version="1.0" encoding="UTF-8"?>
<svg width="214px" height="201px" viewBox="0 0 214 201" version="1.1" xmlns="http://www.w3.org/2000/svg" xmlns:xlink="http://www.w3.org/1999/xlink">
    <!-- Generator: Sketch 64 (93537) - https://sketch.com -->
    <title>Art</title>
    <desc>Created with Sketch.</desc>
    <defs>
        <polygon id="path-1" points="0 200.079689 213.380375 200.079689 213.380375 0.466362217 0 0.466362217"></polygon>
    </defs>
    <g id="Region-Admin---Desktop" stroke="none" stroke-width="1" fill="none" fill-rule="evenodd">
        <g id="Region-Admin---Home" transform="translate(-743.000000, -235.000000)">
            <g id="Update-Businesses-Card" transform="translate(348.000000, -371.000000)">
                <g id="Art" transform="translate(395.000000, 606.000000)">
                    <path d="M76.1474593,187.920007 L15.6525444,187.920007 C14.7658415,187.920007 14.0400006,187.223552 14.0400006,186.371701 L14.0400006,185.148313 C14.0400006,184.296933 14.7658415,183.600007 15.6525444,183.600007 L76.1474593,183.600007 C77.0346526,183.600007 77.7600031,184.296933 77.7600031,185.148313 L77.7600031,186.371701 C77.7600031,187.223552 77.0346526,187.920007 76.1474593,187.920007" id="Fill-1" fill="#424243"></path>
                    <polygon id="Fill-3" fill="#F0F1F1" points="16.2000006 150.120006 197.640008 150.120006 197.640008 7.5600003 16.2000006 7.5600003"></polygon>
                    <polygon id="Fill-4" fill="#48699C" points="16.2000006 149.040006 197.640008 149.040006 197.640008 55.0800022 16.2000006 55.0800022"></polygon>
                    <g id="Group-55">
                        <path d="M179.651514,147.150275 L136.102873,147.150275 L83.6447237,147.150275 L38.2944196,147.150275 L23.2862921,147.150275 C21.5460768,147.150275 19.6067692,146.947253 17.7829843,147.010023 L17.7829843,134.896375 L17.7829843,100.993165 L17.7829843,59.9832043 L17.7829843,24.6730623 L17.7829843,12.9169093 C17.7829843,11.6884789 17.935376,10.3026328 17.9186621,8.98691271 L34.0043466,8.98691271 L77.5534788,8.98691271 L130.011628,8.98691271 L175.361441,8.98691271 L190.37006,8.98691271 C192.109783,8.98691271 194.049091,9.19042514 195.872876,9.12765504 L195.872876,21.2408129 L195.872876,55.144022 L195.872876,96.1539832 L195.872876,131.464616 C195.872876,136.672572 195.658053,141.934962 195.815852,147.150275 L179.651514,147.150275 Z M199.713148,7.37401541 C199.709215,7.29015848 199.713148,7.20581116 199.713148,7.12195423 C199.713148,6.11419991 198.8337,5.25748615 197.793012,5.25748615 L179.651514,5.25748615 L136.102873,5.25748615 L83.6447237,5.25748615 L38.2944196,5.25748615 C30.942256,5.25748615 23.5178292,4.96423209 16.1700899,5.25748615 C16.0678399,5.26189967 15.9650984,5.25748615 15.8628485,5.25748615 C14.8251099,5.25748615 13.9432043,6.11174796 13.9432043,7.12195423 L13.9432043,21.2408129 L13.9432043,55.144022 L13.9432043,96.1539832 L13.9432043,131.464616 C13.9432043,137.209551 13.6762729,143.02265 13.9432043,148.763662 C13.9466454,148.847029 13.9432043,148.931376 13.9432043,149.015233 C13.9432043,150.022988 14.822652,150.879701 15.8628485,150.879701 L34.0043466,150.879701 L77.5534788,150.879701 L130.011628,150.879701 L175.361441,150.879701 C182.713604,150.879701 190.138031,151.172955 197.48577,150.879701 C197.58802,150.876269 197.690762,150.879701 197.793012,150.879701 C198.35637,150.879701 198.785033,150.680112 199.091291,150.381464 C199.114396,150.362829 199.135042,150.341252 199.157164,150.321636 C199.167979,150.308886 199.181251,150.298097 199.192066,150.285347 C199.504715,149.986699 199.713148,149.567904 199.713148,149.015233 L199.713148,134.896375 L199.713148,100.993165 L199.713148,59.9832043 L199.713148,24.6730623 C199.713148,18.9276367 199.980079,13.1145371 199.713148,7.37401541 L199.713148,7.37401541 Z" id="Fill-5" fill="#424243"></path>
                        <mask id="mask-2" fill="white">
                            <use xlink:href="#path-1"></use>
                        </mask>
                        <g id="Clip-8"></g>
                        <polygon id="Fill-7" fill="#F0F1F1" mask="url(#mask-2)" points="1.9201358 159.113863 211.46024 159.113863 211.46024 149.015233 1.9201358 149.015233"></polygon>
                        <path d="M3.84007497,159.113618 L3.84007497,149.014988 C3.2000297,149.636804 2.55998443,150.25813 1.91993917,150.879947 L22.7867913,150.879947 L72.8892595,150.879947 L133.478737,150.879947 L185.675854,150.879947 L202.932988,150.879947 C205.555109,150.879947 208.488896,151.241365 211.091353,150.879947 C211.208842,150.863764 211.340587,150.879947 211.460043,150.879947 L209.540399,149.014988 L209.540399,159.113618 C209.540399,161.513594 213.380179,161.517026 213.380179,159.113618 L213.380179,149.014988 C213.380179,148.007234 212.500239,147.15052 211.460043,147.15052 L190.593191,147.15052 L140.490723,147.15052 L79.9012454,147.15052 L27.7041283,147.15052 C19.2527779,147.15052 10.7360466,146.8504 2.28862884,147.15052 C2.16622387,147.154933 2.04283572,147.15052 1.91993917,147.15052 C0.882200642,147.15052 -0.000196634491,148.005272 -0.000196634491,149.014988 L-0.000196634491,159.113618 C-0.000196634491,161.513594 3.84007497,161.517026 3.84007497,159.113618" id="Fill-9" fill="#424243" mask="url(#mask-2)"></path>
                        <path d="M95.9282345,168.907077 L1.88189039,168.907077 C1.0894534,168.907077 0.441542749,168.277905 0.441542749,167.508481 L0.441542749,167.235824 C0.441542749,166.4664 1.0894534,165.837227 1.88189039,165.837227 L95.9282345,165.837227 C96.7196884,165.837227 97.3680906,166.4664 97.3680906,167.235824 L97.3680906,167.508481 C97.3680906,168.277905 96.7196884,168.907077 95.9282345,168.907077" id="Fill-10" fill="#424243" mask="url(#mask-2)"></path>
                        <path d="M197.302065,175.933013 L84.7165292,175.933013 C83.8714924,175.933013 83.1803222,175.261667 83.1803222,174.441242 L83.1803222,173.421719 C83.1803222,172.601294 83.8714924,171.929948 84.7165292,171.929948 L197.302065,171.929948 C198.147101,171.929948 198.838272,172.601294 198.838272,173.421719 L198.838272,174.441242 C198.838272,175.261667 198.147101,175.933013 197.302065,175.933013" id="Fill-11" fill="#424243" mask="url(#mask-2)"></path>
                        <path d="M209.924426,175.933013 L203.723066,175.933013 C202.878029,175.933013 202.186859,175.261667 202.186859,174.441242 L202.186859,173.421719 C202.186859,172.601294 202.878029,171.929948 203.723066,171.929948 L209.924426,171.929948 C210.768971,171.929948 211.460141,172.601294 211.460141,173.421719 L211.460141,174.441242 C211.460141,175.261667 210.768971,175.933013 209.924426,175.933013" id="Fill-12" fill="#424243" mask="url(#mask-2)"></path>
                        <polygon id="Fill-13" fill="#F156A6" mask="url(#mask-2)" points="6.03225458 11.7777301 207.678958 11.7777301 207.678958 2.46617833 6.03225458 2.46617833"></polygon>
                        <path d="M187.584585,9.91321301 L139.342279,9.91321301 L81.1999179,9.91321301 L30.922445,9.91321301 L14.2817597,9.91321301 C12.2677309,9.91321301 10.0433032,9.68567141 7.95258702,9.77639381 L7.95258702,4.33108776 L26.1270214,4.33108776 L74.3693273,4.33108776 L132.51218,4.33108776 L182.789161,4.33108776 C190.423987,4.33108776 198.119769,4.59050481 205.759511,4.37571338 L205.759511,9.91321301 L187.584585,9.91321301 Z M209.085583,1.20533301 C209.066411,1.18277501 209.04429,1.16315935 209.024135,1.14207252 C209.011354,1.13079352 208.999556,1.11804334 208.986774,1.10725473 C208.679533,0.803702458 208.24792,0.601661203 207.679155,0.601661203 L187.584585,0.601661203 L139.342279,0.601661203 L81.1999179,0.601661203 L30.922445,0.601661203 C22.7630968,0.601661203 14.5339434,0.297618538 6.37852792,0.601661203 C6.26349675,0.606074725 6.14797398,0.601661203 6.03245122,0.601661203 C4.9947127,0.601661203 4.11231542,1.45592301 4.11231542,2.46612929 L4.11231542,11.7781715 C4.11231542,12.7859258 4.99225476,13.6426396 6.03245122,13.6426396 L26.1270214,13.6426396 L74.3693273,13.6426396 L132.51218,13.6426396 L182.789161,13.6426396 C190.948509,13.6426396 199.177663,13.9466822 207.333078,13.6426396 C207.448109,13.6382261 207.564124,13.6426396 207.679155,13.6426396 C208.716893,13.6426396 209.598799,12.7883778 209.598799,11.7781715 L209.598799,2.46612929 C209.598799,1.91934288 209.393808,1.50300059 209.085583,1.20533301 L209.085583,1.20533301 Z" id="Fill-14" fill="#424243" mask="url(#mask-2)"></path>
                        <polygon id="Fill-15" fill="#9EDBDE" mask="url(#mask-2)" points="91.1794133 139.341773 188.627534 139.341773 188.627534 61.7039877 91.1794133 61.7039877"></polygon>
                        <path d="M155.595988,137.649922 L103.18503,137.649922 L92.8430394,137.649922 L92.8430394,112.981764 L92.8430394,71.3465537 L92.8430394,63.395838 L124.210173,63.395838 L176.62113,63.395838 L186.963613,63.395838 L186.963613,88.0639964 L186.963613,129.698716 L186.963613,137.649922 L155.595988,137.649922 Z M188.627141,60.0121374 L155.595988,60.0121374 L103.18503,60.0121374 L91.17902,60.0121374 C90.2794172,60.0121374 89.5150006,60.7874462 89.5150006,61.7039877 L89.5150006,88.0639964 L89.5150006,129.698716 L89.5150006,139.341773 C89.5150006,140.255862 90.2774509,141.033133 91.17902,141.033133 L124.210173,141.033133 L176.62113,141.033133 L188.627141,141.033133 C189.115778,141.033133 189.486434,140.852178 189.752382,140.581482 C189.772045,140.564318 189.790234,140.544703 189.808914,140.527049 C189.818746,140.51577 189.830052,140.505471 189.839392,140.493702 C190.110256,140.223496 190.29116,139.843443 190.29116,139.341773 L190.29116,112.981764 L190.29116,71.3465537 L190.29116,61.7039877 C190.29116,60.7894077 189.52871,60.0121374 188.627141,60.0121374 L188.627141,60.0121374 Z" id="Fill-16" fill="#424243" mask="url(#mask-2)"></path>
                        <path d="M138.292496,73.8650077 C131.973156,82.1173141 125.653323,90.3696205 119.334474,98.6214365 L116.649921,102.127245 C115.999061,102.976112 117.168545,104.181985 117.826287,103.323309 C124.145628,95.0710028 130.464969,86.8191868 136.784802,78.5668804 L139.469354,75.0610724 C140.119231,74.2122048 138.949747,73.0063324 138.292496,73.8650077" id="Fill-17" fill="#F0F1F1" mask="url(#mask-2)"></path>
                        <path d="M142.556466,79.5308428 C138.234932,85.174267 133.912906,90.8181815 129.591371,96.4611153 C128.941003,97.3104732 130.110486,98.5163457 130.768229,97.6576703 C135.089763,92.0142462 139.411298,86.3703316 143.733324,80.7269074 C144.383201,79.8780399 143.213717,78.6721675 142.556466,79.5308428" id="Fill-18" fill="#F0F1F1" mask="url(#mask-2)"></path>
                        <polygon id="Fill-19" fill="#F0F1F1" mask="url(#mask-2)" points="90.3609222 48.6306435 189.548275 48.6306435 189.548275 19.7397248 90.3609222 19.7397248"></polygon>
                        <polygon id="Fill-20" fill="#F0F1F1" mask="url(#mask-2)" points="26.7009975 147.690686 54.2568634 147.690686 54.2568634 61.7034973 26.7009975 61.7034973"></polygon>
                        <path d="M54.2567159,145.999473 L30.1424452,145.999473 L26.70085,145.999473 C27.2356958,146.562933 27.7705416,147.126883 28.3048959,147.690343 L28.3048959,118.649855 L28.3048959,72.3485704 L28.3048959,61.703154 C27.7705416,62.2666137 27.2356958,62.8305638 26.70085,63.3940236 L50.8156123,63.3940236 L54.2567159,63.3940236 C53.7223617,62.8305638 53.1875159,62.2666137 52.6526701,61.703154 L52.6526701,90.7441324 L52.6526701,137.045417 L52.6526701,147.690343 C52.6526701,149.8667 55.8607618,149.870623 55.8607618,147.690343 L55.8607618,118.649855 L55.8607618,72.3485704 L55.8607618,61.703154 C55.8607618,60.7890645 55.1258404,60.0122845 54.2567159,60.0122845 L30.1424452,60.0122845 L26.70085,60.0122845 C25.8341835,60.0122845 25.0972957,60.7871029 25.0972957,61.703154 L25.0972957,90.7441324 L25.0972957,137.045417 L25.0972957,147.690343 C25.0972957,148.604432 25.8322171,149.381212 26.70085,149.381212 L50.8156123,149.381212 L54.2567159,149.381212 C56.3208865,149.381212 56.3243276,145.999473 54.2567159,145.999473" id="Fill-21" fill="#424243" mask="url(#mask-2)"></path>
                        <polygon id="Fill-22" fill="#9EDBDE" mask="url(#mask-2)" points="31.3243659 143.391425 48.9664124 143.391425 48.9664124 124.687897 31.3243659 124.687897"></polygon>
                        <polygon id="Fill-23" fill="#9EDBDE" mask="url(#mask-2)" points="31.3248575 129.608484 48.966904 129.608484 48.966904 69.6483283 31.3248575 69.6483283"></polygon>
                        <polygon id="Fill-24" fill="#F0F1F1" mask="url(#mask-2)" points="54.4923332 147.690686 82.0481991 147.690686 82.0481991 61.7034973 54.4923332 61.7034973"></polygon>
                        <path d="M82.04815,145.999473 L57.9338792,145.999473 L54.492284,145.999473 L56.0963299,147.690343 L56.0963299,118.649855 L56.0963299,72.3485704 L56.0963299,61.703154 L54.492284,63.3940236 L78.6065548,63.3940236 L82.04815,63.3940236 C81.5133041,62.8305638 80.9789499,62.2666137 80.4441041,61.703154 L80.4441041,90.7441324 L80.4441041,137.045417 L80.4441041,147.690343 C80.4441041,149.8667 83.6521958,149.870623 83.6521958,147.690343 L83.6521958,118.649855 L83.6521958,72.3485704 L83.6521958,61.703154 C83.6521958,60.7890645 82.9172744,60.0122845 82.04815,60.0122845 L57.9338792,60.0122845 L54.492284,60.0122845 C53.6256175,60.0122845 52.8887298,60.7871029 52.8887298,61.703154 L52.8887298,90.7441324 L52.8887298,137.045417 L52.8887298,147.690343 C52.8887298,148.604432 53.6231596,149.381212 54.492284,149.381212 L78.6065548,149.381212 L82.04815,149.381212 C84.1118289,149.381212 84.11527,145.999473 82.04815,145.999473" id="Fill-25" fill="#424243" mask="url(#mask-2)"></path>
                        <polygon id="Fill-26" fill="#9EDBDE" mask="url(#mask-2)" points="59.1157017 143.391425 76.7577482 143.391425 76.7577482 124.687897 59.1157017 124.687897"></polygon>
                        <polygon id="Fill-27" fill="#9EDBDE" mask="url(#mask-2)" points="59.1157017 129.608484 76.7577482 129.608484 76.7577482 69.6483283 59.1157017 69.6483283"></polygon>
                        <path d="M46.3690183,107.809312 L43.6839743,105.130794 C43.4725922,104.919926 43.4725922,104.578123 43.6839743,104.367254 L46.3690183,101.688737 C46.7096875,101.348405 47.2927088,101.589187 47.2927088,102.070261 L47.2927088,107.427787 C47.2927088,107.908371 46.7096875,108.149153 46.3690183,107.809312" id="Fill-28" fill="#424243" mask="url(#mask-2)"></path>
                        <path d="M61.2346841,107.865805 L63.9998566,105.107353 C64.1979659,104.909725 64.1979659,104.588519 63.9998566,104.390401 L61.2346841,101.63244 C60.9146615,101.313195 60.367526,101.539265 60.367526,101.990916 L60.367526,107.507329 C60.367526,107.958489 60.9146615,108.184559 61.2346841,107.865805" id="Fill-29" fill="#424243" mask="url(#mask-2)"></path>
                        <path d="M25.484764,125.426524 C25.484764,144.338959 21.8838949,159.670556 17.4424133,159.670556 C13.0004402,159.670556 9.40006266,144.338959 9.40006266,125.426524 C9.40006266,103.435413 17.4424133,91.1820029 17.4424133,91.1820029 C17.4424133,91.1820029 25.484764,103.183352 25.484764,125.426524" id="Fill-30" fill="#FF9349" mask="url(#mask-2)"></path>
                        <path d="M17.4484598,92.8854265 C15.4821149,96.5491406 10.2703178,107.913471 10.2703178,125.426328 C10.2703178,146.143894 14.4473259,158.866118 17.4425608,158.866118 C20.4377957,158.866118 24.6143123,146.143894 24.6143123,125.426328 C24.6143123,107.740363 19.4207038,96.5103997 17.4484598,92.8854265 M17.4425608,160.474601 C11.6526582,160.474601 8.52911935,142.416919 8.52911935,125.426328 C8.52911935,103.462678 16.3645122,91.27351 16.6978077,90.7654645 L17.4346954,89.6429586 L18.1828897,90.7590894 C18.5161851,91.257327 26.3555107,103.210127 26.3555107,125.426328 C26.3555107,142.416919 23.2319718,160.474601 17.4425608,160.474601" id="Fill-31" fill="#424243" mask="url(#mask-2)"></path>
                        <path d="M17.4424625,154.880167 C16.9611996,154.880167 16.5718633,154.52071 16.5718633,154.075925 L16.5718633,107.421559 C16.5718633,106.976774 16.9611996,106.617317 17.4424625,106.617317 C17.9237254,106.617317 18.3130617,106.976774 18.3130617,107.421559 L18.3130617,154.075925 C18.3130617,154.52071 17.9237254,154.880167 17.4424625,154.880167" id="Fill-32" fill="#424243" mask="url(#mask-2)"></path>
                        <path d="M33.1545415,127.607393 C33.1545415,139.614136 30.4080492,149.347915 27.0195453,149.347915 C23.6315331,149.347915 20.8850408,139.614136 20.8850408,127.607393 C20.8850408,113.64595 27.0195453,105.866381 27.0195453,105.866381 C27.0195453,105.866381 33.1545415,113.485592 33.1545415,127.607393" id="Fill-33" fill="#FCBB5B" mask="url(#mask-2)"></path>
                        <path d="M27.0243137,106.948233 C25.5239926,109.273669 21.5485348,116.488798 21.5485348,127.607442 C21.5485348,140.76023 24.7349967,148.837466 27.0198895,148.837466 C29.3042907,148.837466 32.4907526,140.76023 32.4907526,127.607442 C32.4907526,116.37895 28.5290592,109.24915 27.0243137,106.948233 M27.0198895,149.858461 C22.6029872,149.858461 20.2207604,138.394091 20.2207604,127.607442 C20.2207604,113.663163 26.1974657,105.924787 26.4516158,105.602109 L27.0139904,104.88957 L27.584722,105.598186 C27.8388721,105.914488 33.818527,113.502805 33.818527,127.607442 C33.818527,138.394091 31.4363001,149.858461 27.0198895,149.858461" id="Fill-34" fill="#424243" mask="url(#mask-2)"></path>
                        <path d="M27.0197911,146.306949 C26.6525762,146.306949 26.3556582,146.078426 26.3556582,145.796451 L26.3556582,116.176811 C26.3556582,115.894346 26.6525762,115.666314 27.0197911,115.666314 C27.3870061,115.666314 27.6839241,115.894346 27.6839241,116.176811 L27.6839241,145.796451 C27.6839241,146.078426 27.3870061,146.306949 27.0197911,146.306949" id="Fill-35" fill="#424243" mask="url(#mask-2)"></path>
                        <polygon id="Fill-36" fill="#F0F1F1" mask="url(#mask-2)" points="30.8031862 164.862329 10.4441426 164.862329 7.42088736 138.92798 33.0207317 138.92798"></polygon>
                        <path d="M10.8891265,164.364239 L30.3446346,164.364239 L32.4771356,139.425875 L7.98139397,139.425875 L10.8891265,164.364239 Z M31.2619345,165.360224 L9.99984702,165.360224 L6.86008579,138.42989 L33.5645244,138.42989 L31.2619345,165.360224 Z" id="Fill-37" fill="#424243" mask="url(#mask-2)"></path>
                        <path d="M11.1624976,164.058234 L30.0630048,164.058234 L32.1424146,139.73286 L8.32604508,139.73286 L11.1624976,164.058234 Z M30.8033337,165.666718 L10.4442901,165.666718 C10.0347988,165.666718 9.69068844,165.361204 9.64349616,164.95516 L6.61974928,139.020811 C6.59320363,138.79327 6.6654668,138.564747 6.81835012,138.393601 C6.97172502,138.221964 7.19048089,138.123886 7.42054325,138.123886 L33.0203876,138.123886 C33.2465172,138.123886 33.4613404,138.218531 33.6142237,138.384283 C33.7666155,138.550526 33.8433029,138.772183 33.8236395,138.996782 L31.606094,164.930641 C31.5706998,165.347473 31.2221652,165.666718 30.8033337,165.666718 L30.8033337,165.666718 Z" id="Fill-38" fill="#424243" mask="url(#mask-2)"></path>
                        <polygon id="Fill-39" fill="#F0F1F1" mask="url(#mask-2)" points="3.89287133 139.280474 36.5479612 139.280474 36.5479612 135.511816 3.89287133 135.511816"></polygon>
                        <path d="M4.39232293,138.782236 L36.0485096,138.782236 L36.0485096,136.010053 L4.39232293,136.010053 L4.39232293,138.782236 Z M3.39341972,139.778221 L37.0469212,139.778221 L37.0469212,135.013088 L3.39341972,135.013088 L3.39341972,139.778221 Z" id="Fill-40" fill="#424243" mask="url(#mask-2)"></path>
                        <path d="M4.69956432,138.476232 L35.7417598,138.476232 L35.7417598,136.316058 L4.69956432,136.316058 L4.69956432,138.476232 Z M36.5479612,140.084716 L3.89336291,140.084716 C3.44749421,140.084716 3.08666992,139.724768 3.08666992,139.280474 L3.08666992,135.511816 C3.08666992,135.067031 3.44749421,134.707084 3.89336291,134.707084 L36.5479612,134.707084 C36.9938299,134.707084 37.3541626,135.067031 37.3541626,135.511816 L37.3541626,139.280474 C37.3541626,139.724768 36.9938299,140.084716 36.5479612,140.084716 L36.5479612,140.084716 Z" id="Fill-41" fill="#424243" mask="url(#mask-2)"></path>
                        <polygon id="Fill-42" fill="#9EDBDE" mask="url(#mask-2)" points="23.6974056 46.4165263 84.8158296 46.4165263 84.8158296 20.8882215 23.6974056 20.8882215"></polygon>
                        <path d="M84.8157313,44.769792 L64.153379,44.769792 L31.2343073,44.769792 L23.6973073,44.769792 C24.2478839,45.3190304 24.7984605,45.8677784 25.3485454,46.4165263 L25.3485454,20.8882215 C24.7984605,21.4374598 24.2478839,21.9866982 23.6973073,22.5354462 L44.3601512,22.5354462 L77.2792228,22.5354462 L84.8157313,22.5354462 C84.2656463,21.9866982 83.7150697,21.4374598 83.1649847,20.8882215 L83.1649847,46.4165263 C83.1649847,48.5364883 86.4664778,48.5399211 86.4664778,46.4165263 L86.4664778,20.8882215 C86.4664778,19.9981611 85.7104182,19.2414872 84.8157313,19.2414872 L64.153379,19.2414872 L31.2343073,19.2414872 L23.6973073,19.2414872 C22.8050783,19.2414872 22.0465608,19.9957091 22.0465608,20.8882215 L22.0465608,46.4165263 C22.0465608,47.3070771 22.803112,48.063751 23.6973073,48.063751 L44.3601512,48.063751 L77.2792228,48.063751 L84.8157313,48.063751 C86.9403669,48.063751 86.943808,44.769792 84.8157313,44.769792" id="Fill-43" fill="#424243" mask="url(#mask-2)"></path>
                        <polygon id="Fill-44" fill="#F0F1F1" mask="url(#mask-2)" points="25.3383205 45.0841329 83.1232982 45.0841329 83.1232982 40.8290068 25.3383205 40.8290068"></polygon>
                        <path d="M115.388658,100.038226 C115.388658,85.6055172 127.117414,73.9047785 141.58578,73.9047785 C156.053654,73.9047785 167.78241,85.6055172 167.78241,100.038226 C167.78241,114.470935 156.053654,126.170693 141.58578,126.170693 C127.117414,126.170693 115.388658,114.470935 115.388658,100.038226" id="Fill-45" fill="#FFFFFF" mask="url(#mask-2)"></path>
                        <path d="M112.003202,110.725767 C113.219878,109.497337 114.417874,108.262041 115.576543,107.067448 C119.836137,102.674521 123.859279,98.524339 127.58157,96.0145159 C129.057312,95.0195117 130.475538,94.3045211 131.833299,93.8680727 C129.49679,93.1962365 126.993633,93.7543019 124.357256,95.5545288 C121.496716,97.5087385 118.581609,100.769351 115.207361,104.545365 C113.195791,106.796261 111.115398,109.124149 108.799535,111.462826 C106.928558,113.352304 104.988267,115.242272 103.084354,117.053778 C102.899026,118.235131 102.631603,119.48759 102.281593,120.813609 C105.192767,117.723162 108.578321,114.184498 112.003202,110.725767" id="Fill-46" fill="#F156A6" mask="url(#mask-2)"></path>
                        <path d="M59.2316177,173.051964 C59.355989,172.352666 59.7792447,171.742128 60.3912696,171.379239 C65.3966006,168.408938 71.51095,160.696062 71.5104585,155.927987 C71.5104585,153.067534 71.1894526,150.751905 70.9067906,148.707954 C70.1536805,143.269023 69.5588611,138.972704 75.7415411,131.664891 C80.6785416,125.829234 83.4466636,119.555166 85.6705997,114.513943 C87.7033088,109.906225 89.5393833,105.749177 92.5011903,104.182377 C92.1536389,104.06076 91.792323,103.957778 91.4157679,103.876863 C85.8229914,102.6705 83.3861985,108.193288 80.5644936,114.588973 C78.3356416,119.641966 75.5621121,125.929764 70.6074146,131.786509 C64.4788091,139.029589 65.068221,143.289619 65.815432,148.682944 C66.0985857,150.731799 66.4200831,153.054783 66.4200831,155.927987 C66.4200831,158.206835 65.0431501,161.340436 62.6422429,164.526019 C60.4527179,167.431588 57.6039757,170.119913 55.2089676,171.541068 C54.6510172,171.872082 54.2621725,172.427205 54.1422255,173.063733 C54.0222785,173.700261 54.1825356,174.358366 54.5821952,174.868864 C54.6814956,174.995385 64.6115374,187.657291 74.1202897,197.142931 C74.6158086,197.637246 75.3143527,197.873124 76.0094556,197.784363 C76.7045585,197.695112 77.3195329,197.288578 77.6739666,196.685396 C77.7880146,196.490711 77.9295914,196.261698 78.0932896,196.008656 C69.3199502,186.772134 59.8480668,175.15231 59.7418842,175.021375 C59.2925744,174.470176 59.1067548,173.751262 59.2316177,173.051964" id="Fill-47" fill="#F156A6" mask="url(#mask-2)"></path>
                        <path d="M137.523951,152.289331 C136.836221,151.613572 135.033083,149.847673 128.064357,155.690196 C126.149137,157.405585 121.780902,160.918258 121.595082,161.067828 C120.542596,161.914243 119.000982,161.751924 118.152504,160.702486 C117.301568,159.65501 117.462317,158.118124 118.510379,157.266804 C118.52955,157.252092 120.431989,155.70785 124.846433,152.000981 L125.019472,151.846018 C127.366304,149.739296 130.579804,146.854324 132.709355,144.101266 C133.579954,142.975328 135.507464,140.223251 134.618676,138.979619 C134.541005,138.870752 134.453503,138.76826 134.360102,138.674595 C133.06723,137.384375 130.069045,137.557974 127.638152,139.856929 C122.350159,145.714654 115.553487,150.779907 115.265418,150.993227 C114.204575,151.780796 112.708678,151.58562 111.886746,150.555798 C111.062356,149.524995 111.20639,148.028321 112.211193,147.172097 C112.27854,147.115702 118.91053,141.460509 124.112495,136.455574 L124.586876,135.928894 C128.718658,131.347657 130.3989,129.160021 129.149288,127.436295 C129.066701,127.322525 128.978216,127.217581 128.886289,127.125878 C127.15738,125.401171 122.649043,127.233273 119.773264,130.024091 C114.088069,135.540013 108.17232,140.994146 108.11333,141.048089 C107.12475,141.959237 105.580186,141.894015 104.664361,140.926472 C103.743128,139.948142 103.784422,138.411745 104.757762,137.484906 C104.869844,137.378 116.05933,126.690901 125.636412,115.475649 C127.057588,113.810771 128.621324,112.148834 130.133443,110.542802 C134.114309,106.311705 139.070481,101.046373 137.287989,99.2687041 C137.195571,99.1765106 137.086439,99.0833362 136.964034,98.9911426 C133.323838,96.2650568 127.785627,101.507831 119.099299,110.466792 C117.932273,111.670703 116.724446,112.915316 115.490564,114.162381 C106.322481,123.420971 97.4257537,133.26803 97.3372681,133.365618 C96.515336,134.276765 95.1452852,134.439085 94.1316344,133.747633 C93.1189667,133.053239 92.7748564,131.723297 93.3278909,130.629234 C96.8594463,123.629877 100.44311,112.38226 97.3495578,109.296227 C96.9464571,108.894106 96.4062038,108.624882 95.6983197,108.471879 C94.0392162,108.113894 92.7360211,110.637938 90.1576513,116.482913 C87.8063944,121.811997 84.8799816,128.44454 79.4872807,134.818648 C74.7134868,140.461581 75.0634962,142.994453 75.7620403,148.0396 C76.0663321,150.238515 76.4119172,152.731174 76.4119172,155.927545 C76.4124088,160.189046 73.8433792,164.492231 71.6882652,167.351213 C69.7818938,169.880652 67.4832366,172.225213 65.2283306,173.978362 C68.4614932,177.869618 75.8161147,186.586325 82.5120107,193.54645 C84.6685995,189.86361 88.6878085,184.100531 93.3195339,182.819628 L94.4010236,182.52098 C101.230139,180.637877 107.127699,179.010759 113.253847,175.564778 C120.386763,171.550925 126.548305,167.199191 131.072865,162.978883 C136.740362,157.693445 137.690107,154.654979 137.835616,153.594263 C137.956055,152.719405 137.664053,152.428603 137.523951,152.289331" id="Fill-48" fill="#FFFFFF" mask="url(#mask-2)"></path>
                        <path d="M131.072815,162.978785 C126.548256,167.199093 120.386714,171.550827 113.253798,175.56468 C107.12765,179.01066 101.23009,180.637779 94.4009745,182.521372 L93.3194848,182.81953 C88.6877593,184.100433 84.6685503,189.863512 82.5119616,193.546352 C75.8160656,186.586227 68.461444,177.86952 65.2282814,173.978264 C67.483679,172.225115 69.7818446,169.880553 71.688216,167.351115 C73.8433301,164.492133 76.4123597,160.189439 76.4118681,155.927447 C76.4118681,152.731566 76.0667746,150.238907 75.7619911,148.039501 C75.0634471,142.994355 74.7134377,140.461483 79.4872315,134.818549 C84.8799324,128.444442 87.8063452,121.811899 90.1576021,116.483306 C92.7359719,110.638331 94.039167,108.113796 95.6982705,108.472272 C96.4061547,108.624783 96.9464079,108.894008 97.3495086,109.296129 C100.443061,112.382162 96.8593972,123.629779 93.3278417,130.629136 C92.7748072,131.723199 93.1189176,133.053631 94.1320768,133.748025 C95.145236,134.438987 96.5152868,134.276667 97.337219,133.36552 C97.4257045,133.267932 106.322432,123.420873 115.490515,114.162283 C116.724888,112.915218 117.932224,111.670604 119.09925,110.466694 C127.785578,101.507733 133.323789,96.2649588 136.963985,98.9915349 C137.08639,99.0832381 137.195522,99.1769029 137.28794,99.2686061 C139.070923,101.046275 134.114259,106.311607 130.133394,110.542704 C128.621275,112.149226 127.057539,113.810672 125.636363,115.475551 C116.05928,126.690802 104.869795,137.377902 104.757713,137.484807 C103.784372,138.411647 103.743079,139.948043 104.664312,140.926374 C105.580137,141.893917 107.124701,141.959139 108.113281,141.047991 C108.172271,140.994048 114.08802,135.539915 119.773214,130.023993 C122.648994,127.233175 127.157331,125.401073 128.88624,127.12627 C128.978166,127.217483 129.066652,127.322427 129.149238,127.436197 C130.398851,129.159923 128.718609,131.347559 124.586827,135.928796 L124.112446,136.455476 C118.910481,141.460411 112.278491,147.115604 112.211143,147.17249 C111.206341,148.028222 111.062306,149.524897 111.886697,150.5557 C112.708629,151.586012 114.205017,151.780697 115.265369,150.993619 C115.553438,150.779809 122.350109,145.714556 127.638102,139.857321 C130.068996,137.557876 133.067181,137.384768 134.360052,138.674497 C134.453454,138.768162 134.540956,138.870654 134.618627,138.980011 C135.507415,140.223153 133.579905,142.97523 132.709306,144.101168 C130.579754,146.854225 127.366255,149.739198 125.019423,151.845919 L124.846384,152.000883 C120.432431,155.707752 118.529501,157.251994 118.510329,157.267196 C117.462268,158.118025 117.301519,159.654912 118.152455,160.702388 C119.000932,161.751826 120.542547,161.914145 121.595033,161.06822 C121.780853,160.91816 126.149088,157.405487 128.064308,155.690098 C135.033034,149.847575 136.836172,151.613474 137.523901,152.289233 C137.664003,152.428504 137.956006,152.719307 137.835567,153.594165 C137.690058,154.654881 136.740313,157.693346 131.072815,162.978785 M141.092817,148.728501 C141.087902,148.724088 141.058406,148.695155 141.053982,148.68976 C139.790114,147.429945 138.357632,146.844418 136.967426,146.618347 C139.619042,143.046336 140.945833,139.3429 138.635378,136.113183 C138.400891,135.784621 138.12462,135.487443 137.839991,135.203507 C136.559409,133.927018 134.912595,133.206143 133.138952,133.009496 C134.730217,130.266246 135.22082,127.461207 133.125188,124.567898 C132.889718,124.24424 132.629177,123.941668 132.353397,123.667049 C130.923373,122.24001 129.017985,121.528943 126.82846,121.568664 C127.681854,120.602593 128.530331,119.626224 129.367503,118.645932 C130.711991,117.071285 132.234434,115.453484 133.706734,113.889135 C136.55646,110.860968 139.248386,108.001496 140.908473,105.267564 C143.816697,100.480363 142.42944,97.4821102 140.754115,95.8108563 C140.498981,95.5568336 140.213861,95.3111475 139.907111,95.0811539 C137.538649,93.3074083 134.834433,92.9047969 131.833299,93.8679256 C130.475538,94.304374 129.057312,95.0193646 127.58157,96.0143688 C123.859279,98.5241919 119.836137,102.674374 115.576543,107.0673 C114.417874,108.261894 113.219878,109.49719 112.003202,110.72562 C108.578321,114.184351 105.192767,117.723015 102.281593,120.813952 C102.631603,119.487443 102.899026,118.234984 103.084354,117.054121 C103.891047,111.912367 103.134004,108.151065 100.815683,105.83838 C99.7415672,104.766874 98.3685669,104.045018 96.7340427,103.692427 C95.0803466,103.335912 93.6994809,103.548252 92.5009937,104.182328 C89.5396783,105.749128 87.7031121,109.906176 85.6708947,114.513894 C83.446467,119.555117 80.6783449,125.829185 75.7413445,131.665333 C69.5586645,138.972655 70.1534838,143.268974 70.9065939,148.707905 C71.1897476,150.751856 71.5102618,153.067484 71.5102618,155.927937 C71.5107534,160.696013 65.3964039,168.408889 60.3915646,171.37919 C59.7795397,171.742079 59.356284,172.352616 59.2314211,173.051915 C59.1065582,173.751213 59.2923777,174.470127 59.7416876,175.021326 C59.8483618,175.152261 69.3202452,186.772085 78.0935846,196.008607 C79.1996536,197.174267 80.2953993,198.301677 81.3596835,199.363375 C81.9220581,199.924382 82.7218689,200.178405 83.5054573,200.044528 C84.2895374,199.911142 84.9585862,199.406529 85.3031882,198.690558 C87.1392627,194.865505 91.2946411,188.454128 94.6285789,187.531701 L95.7071191,187.234524 C102.549508,185.347498 109.0119,183.565416 115.660604,179.82471 C131.146062,171.111436 141.808567,161.024085 142.743564,154.205683 C143.038024,152.060221 142.500229,150.133473 141.092817,148.728501" id="Fill-49" fill="#333333" mask="url(#mask-2)"></path>
                        <path d="M116.164922,81.8923226 C116.584737,82.588188 117.227732,83.3321117 117.950363,84.0524967 C119.738754,85.8370309 122.013815,87.4773902 122.597328,87.8883382 C123.701922,88.6670797 125.231247,88.4052107 126.012869,87.3028108 C126.794,86.1999206 126.531984,84.6748033 125.425915,83.895081 C123.741249,82.7068627 121.056697,80.5167747 120.364543,79.3702396 C119.665016,78.2134063 118.159779,77.8407089 117.000619,78.5370646 C115.840967,79.2334204 115.46687,80.7359797 116.164922,81.8923226" id="Fill-50" fill="#F156A6" mask="url(#mask-2)"></path>
                        <path d="M133.242235,80.9996141 C133.320888,81.5410062 133.57258,82.0147243 133.932913,82.3751619 C134.461368,82.9018423 135.22431,83.1818558 136.02068,83.0661234 C137.360744,82.871438 138.287876,81.6302574 138.092716,80.2944312 C137.663561,77.3594387 138.047981,72.4378707 138.051914,72.3883412 C138.15908,71.0422168 137.152311,69.8647871 135.80389,69.7573913 C134.454486,69.650486 133.273696,70.6538268 133.166039,71.9994608 C133.14785,72.2235697 132.733443,77.5168544 133.242235,80.9996141" id="Fill-51" fill="#F156A6" mask="url(#mask-2)"></path>
                        <path d="M149.132366,83.441518 C148.242103,84.4105314 148.282413,85.9013213 149.204629,86.8212955 C149.2297,86.8467959 149.256246,86.8713154 149.283283,86.895835 C150.281203,87.8084534 151.830683,87.7412698 152.746016,86.7452849 C155.858249,83.3581515 157.626976,80.0229996 157.701206,79.8822573 C158.328961,78.6881542 157.868345,77.2140377 156.670841,76.5848655 C155.47432,75.9566742 153.993662,76.4156805 153.361974,77.607822 C153.346735,77.6372455 151.793814,80.5457568 149.132366,83.441518" id="Fill-52" fill="#F156A6" mask="url(#mask-2)"></path>
                        <path d="M155.204734,100.519055 C155.671249,100.984927 156.324076,101.262488 157.036384,101.233555 C160.737045,101.085948 164.08868,99.7927854 164.229274,99.7373712 C165.490193,99.2455086 166.112049,97.8272967 165.618988,96.5704236 C165.125436,95.31306 163.703277,94.6922245 162.443833,95.1840871 C162.416304,95.1948757 159.681118,96.2345055 156.839258,96.3477859 C155.487396,96.4017289 154.43491,97.5389466 154.488985,98.8889941 C154.514547,99.5274837 154.783936,100.100261 155.204734,100.519055" id="Fill-53" fill="#F156A6" mask="url(#mask-2)"></path>
                        <path d="M148.029197,107.084268 C146.805148,107.659007 146.278659,109.11596 146.854798,110.337034 C147.02292,110.693058 148.076881,112.832636 150.005374,114.756441 C151.095221,115.843639 152.466255,116.862672 154.114052,117.449671 C155.388735,117.903773 156.790739,117.241255 157.246439,115.96967 C157.701648,114.698085 157.036532,113.299979 155.76234,112.844896 C153.518249,112.045558 151.770169,109.255721 151.286939,108.247967 C150.707851,107.031306 149.251281,106.51002 148.029197,107.084268" id="Fill-54" fill="#F156A6" mask="url(#mask-2)"></path>
                    </g>
                </g>
            </g>
        </g>
    </g>
</svg>