<?xml version="1.0" encoding="UTF-8"?>
<svg width="156px" height="43px" viewBox="0 0 156 43" version="1.1" xmlns="http://www.w3.org/2000/svg" xmlns:xlink="http://www.w3.org/1999/xlink">
    <!-- Generator: Sketch 64 (93537) - https://sketch.com -->
    <title>logo-h-sub-color</title>
    <desc>Created with Sketch.</desc>
    <defs>
        <linearGradient x1="61.0127887%" y1="95.5133241%" x2="30.8065403%" y2="10.7444295%" id="linearGradient-1">
            <stop stop-color="#FF7B42" offset="5.304563%"></stop>
            <stop stop-color="#FFAB52" offset="87.06%"></stop>
        </linearGradient>
        <linearGradient x1="-0.132646048%" y1="49.9376068%" x2="99.7591065%" y2="49.9376068%" id="linearGradient-2">
            <stop stop-color="#002C94" offset="0.8641723%"></stop>
            <stop stop-color="#0052CC" offset="68.73%"></stop>
        </linearGradient>
        <linearGradient x1="50.3767256%" y1="29.9297143%" x2="49.4762661%" y2="98.5994286%" id="linearGradient-3">
            <stop stop-color="#1BB7DE" offset="0.7794335%"></stop>
            <stop stop-color="#59D9DE" offset="57.51%"></stop>
        </linearGradient>
        <linearGradient x1="38.2848481%" y1="97.2414476%" x2="55.0400717%" y2="27.0451209%" id="linearGradient-4">
            <stop stop-color="#FF75CC" offset="0%"></stop>
            <stop stop-color="#DE2468" offset="82.65%"></stop>
        </linearGradient>
    </defs>
    <g id="Symbols" stroke="none" stroke-width="1" fill="none" fill-rule="evenodd">
        <g id="Layout---Region-Admin" transform="translate(-71.000000, -34.000000)" fill-rule="nonzero">
            <g id="Sidebar" transform="translate(-7.250000, 31.000000)">
                <g id="logo-h-sub-color" transform="translate(79.000000, 3.000000)">
                    <g id="Group" transform="translate(57.455992, 4.319999)" fill="#0052CC">
                        <path d="M6.32998589,6.16762987 C7.18828906,5.79544531 8.15388013,5.63593764 9.28040304,5.63593764 L9.28040304,9.4641217 C8.79760751,9.41095247 8.52938777,9.41095247 8.31481198,9.41095247 C7.13464511,9.41095247 6.16905405,9.72996781 5.52532667,10.4211677 C4.88159929,11.1123676 4.50609165,12.0694136 4.50609165,13.3986442 L4.50609165,20.1511355 L0.321863689,20.1511355 L0.321863689,5.84861453 L4.29151586,5.84861453 L4.29151586,7.76270656 C4.82795534,7.07150666 5.47168272,6.53981443 6.32998589,6.16762987 Z" id="Path"></path>
                        <path d="M27.4657015,5.84861453 L27.4657015,20.1511355 L23.4424054,20.1511355 L23.4424054,18.5028896 C22.4231704,19.7257817 20.9211398,20.3638124 18.9363137,20.3638124 C17.595215,20.3638124 16.3614042,20.0447971 15.2348813,19.4599356 C14.1620023,18.8750742 13.2500552,17.9711974 12.6599718,16.8546437 C12.0162444,15.73809 11.6943807,14.4620287 11.6943807,12.9732904 C11.6943807,11.4845522 12.0162444,10.2084908 12.6599718,9.09193714 C13.3036992,7.97538345 14.1620023,7.12467589 15.2348813,6.53981443 C16.3614042,5.95495298 17.5415711,5.63593764 18.9363137,5.63593764 C20.760208,5.63593764 22.2085946,6.22079909 23.2814735,7.33735278 L23.2814735,5.84861453 L27.4657015,5.84861453 Z M22.3158825,15.8975977 C23.0132538,15.2063978 23.3887614,14.1961825 23.3887614,13.0264596 C23.3887614,11.8035675 23.0668977,10.8465215 22.3158825,10.1553216 C21.6185111,9.4641217 20.760208,9.09193714 19.687329,9.09193714 C18.61445,9.09193714 17.7025029,9.4641217 17.0051316,10.1553216 C16.3077603,10.8465215 15.9322526,11.8567367 15.9322526,13.0264596 C15.9322526,14.2493518 16.3077603,15.2063978 17.0051316,15.8975977 C17.7025029,16.6419668 18.61445,16.9609821 19.687329,16.9609821 C20.760208,16.9609821 21.6185111,16.5887976 22.3158825,15.8975977 Z" id="Shape"></path>
                        <path d="M45.3827802,7.23101433 C46.5093031,8.29439879 47.0457426,9.88947548 47.0457426,11.9630752 L47.0457426,20.1511355 L42.8615146,20.1511355 L42.8615146,12.6011059 C42.8615146,11.4845522 42.5932949,10.6338446 42.1104994,10.0489832 C41.6277038,9.4641217 40.8766885,9.19827558 39.9647414,9.19827558 C38.8918625,9.19827558 38.0872032,9.51729092 37.4434759,10.1553216 C36.7997485,10.7933523 36.4778848,11.7503983 36.4778848,13.0264596 L36.4778848,20.0979663 L32.2936568,20.0979663 L32.2936568,5.84861453 L36.316953,5.84861453 L36.316953,7.55002967 C36.8533924,6.96516822 37.5507638,6.48664521 38.355423,6.16762987 C39.1600822,5.84861453 40.0720293,5.68910686 41.0912643,5.68910686 C42.8078707,5.63593764 44.2562573,6.16762987 45.3827802,7.23101433 Z" id="Path"></path>
                        <path d="M53.1075087,19.0877511 C52.1955616,18.2370435 51.76641,17.0141514 51.76641,15.4190747 L51.76641,0.425353784 L55.950638,0.425353784 L55.950638,15.2063978 C55.950638,15.7912592 56.1115698,16.2697822 56.4334335,16.5887976 C56.7552972,16.9078129 57.1844488,17.0673206 57.7745322,17.0673206 C57.989108,17.0673206 58.2036838,17.0673206 58.4182596,16.9609821 C58.6328354,16.9078129 58.7937673,16.8546437 58.9546991,16.8014745 L59.1156309,19.9916279 C58.4182596,20.2043047 57.6672443,20.3638124 56.969873,20.3638124 C55.3069106,20.3638124 54.0194559,19.9384586 53.1075087,19.0877511 Z" id="Path"></path>
                        <path d="M76.7644899,5.84861453 L76.7644899,20.1511355 L72.7948377,20.1511355 L72.7948377,18.5028896 C71.7756027,19.7257817 70.2735722,20.3638124 68.2887461,20.3638124 C66.9476474,20.3638124 65.7138366,20.0447971 64.5873137,19.4599356 C63.5144347,18.8750742 62.6024876,17.9711974 62.0124042,16.8546437 C61.3686768,15.73809 61.0468131,14.4620287 61.0468131,12.9732904 C61.0468131,11.4845522 61.3686768,10.2084908 62.0124042,9.09193714 C62.6561315,7.97538345 63.5144347,7.12467589 64.5873137,6.53981443 C65.6601926,5.95495298 66.8940034,5.63593764 68.2887461,5.63593764 C70.1126403,5.63593764 71.5610269,6.22079909 72.580262,7.33735278 L72.580262,5.84861453 L76.7644899,5.84861453 Z M71.6146709,15.8975977 C72.3120422,15.2063978 72.6875498,14.1961825 72.6875498,13.0264596 C72.6875498,11.8035675 72.3120422,10.8465215 71.6146709,10.1553216 C70.9172996,9.4641217 70.0589964,9.09193714 68.9861174,9.09193714 C67.9132385,9.09193714 67.0549353,9.4641217 66.357564,10.1553216 C65.6601926,10.8465215 65.284685,11.8567367 65.284685,13.0264596 C65.284685,14.2493518 65.6065487,15.2063978 66.357564,15.8975977 C67.0549353,16.6419668 67.9132385,16.9609821 68.9861174,16.9609821 C70.0053524,16.9609821 70.9172996,16.5887976 71.6146709,15.8975977 Z" id="Shape"></path>
                        <path d="M93.7159776,6.53981443 C94.7888565,7.17784511 95.7008036,8.02855268 96.2908871,9.14510636 C96.9346144,10.26166 97.2564781,11.5377214 97.2564781,13.0264596 C97.2564781,14.5151979 96.9346144,15.7912592 96.2908871,16.9078129 C95.6471597,18.0243666 94.7888565,18.8750742 93.7159776,19.4599356 C92.6430986,20.0979663 91.4092878,20.3638124 90.0681891,20.3638124 C88.083363,20.3638124 86.5813324,19.7257817 85.5084535,18.5028896 L85.5084535,20.1511355 L81.5388013,20.1511355 L81.5388013,0.425353784 L85.7230293,0.425353784 L85.7230293,7.33735278 C86.7959082,6.16762987 88.2442948,5.63593764 90.0681891,5.63593764 C91.4092878,5.63593764 92.6430986,5.95495298 93.7159776,6.53981443 Z M91.9993712,15.8975977 C92.6967425,15.2063978 93.0186062,14.1961825 93.0186062,13.0264596 C93.0186062,11.8035675 92.6967425,10.8465215 91.9993712,10.1553216 C91.3019999,9.4641217 90.4436967,9.09193714 89.3708177,9.09193714 C88.2979388,9.09193714 87.4396356,9.4641217 86.7422643,10.1553216 C86.044893,10.8465215 85.7230293,11.8567367 85.7230293,13.0264596 C85.7230293,14.2493518 86.044893,15.2063978 86.7422643,15.8975977 C87.4396356,16.6419668 88.2979388,16.9609821 89.3708177,16.9609821 C90.4436967,16.9609821 91.3019999,16.5887976 91.9993712,15.8975977 Z" id="Shape"></path>
                    </g>
                    <g id="Group" opacity="0.85" transform="translate(57.887992, 31.535995)" fill="#000000">
                        <path d="M0.107155292,7.91177028 L0.107155292,2.13531397 L0.803664687,2.13531397 L0.803664687,3.52594234 L0.64293175,3.36548522 C0.696509396,3.2050281 0.803664687,3.04457098 0.910819979,2.88411387 C1.01797527,2.72365675 1.12513056,2.61668533 1.23228585,2.50971392 C1.39301879,2.40274251 1.55375173,2.29577109 1.76806231,2.18879968 C1.9823729,2.08182827 2.19668348,2.08182827 2.35741642,2.08182827 C2.51814935,2.08182827 2.73245994,2.08182827 2.89319287,2.13531397 L2.89319287,2.88411387 C2.67888229,2.83062816 2.46457171,2.83062816 2.19668348,2.83062816 C1.92879525,2.88411387 1.71448467,2.93759957 1.50017408,3.1515424 C1.2858635,3.31199952 1.17870821,3.47245664 1.07155292,3.68639946 C0.964397625,3.90034229 0.910819979,4.11428511 0.857242333,4.32822794 C0.803664687,4.54217077 0.803664687,4.8095993 0.803664687,5.02354213 L0.803664687,7.91177028 L0.107155292,7.91177028 Z" id="Path"></path>
                        <path d="M6.96509396,8.0722274 C6.37573985,8.0722274 5.89354104,7.96525598 5.51849752,7.69782745 C5.08987635,7.43039892 4.76841048,7.10948468 4.5540999,6.62811332 C4.33978931,6.14674196 4.23263402,5.6653706 4.23263402,5.02354213 C4.23263402,4.38171365 4.33978931,3.84685658 4.5540999,3.36548522 C4.76841048,2.88411387 5.08987635,2.56319963 5.51849752,2.29577109 C5.94711869,2.02834256 6.4293175,1.92137115 6.96509396,1.92137115 C7.55444806,1.92137115 8.03664687,2.02834256 8.41169039,2.29577109 C8.78673392,2.56319963 9.10819979,2.93759957 9.32251037,3.41897093 C9.53682096,3.90034229 9.64397625,4.48868506 9.5903986,5.18399924 L8.78673392,5.18399924 L8.78673392,4.91657071 C8.78673392,4.16777082 8.62600098,3.57942805 8.3045351,3.2050281 C7.98306923,2.83062816 7.55444806,2.61668533 6.96509396,2.61668533 C6.32216221,2.61668533 5.89354104,2.83062816 5.51849752,3.2050281 C5.19703165,3.63291376 5.03629871,4.16777082 5.03629871,4.91657071 C5.03629871,5.6653706 5.19703165,6.20022767 5.51849752,6.62811332 C5.83996339,7.05599897 6.32216221,7.21645609 6.91151631,7.21645609 C7.34013748,7.21645609 7.66160335,7.10948468 7.98306923,6.94902756 C8.3045351,6.73508473 8.51884569,6.4676562 8.73315627,6.14674196 L9.48324331,6.41417049 C9.26893273,6.89554185 8.89388921,7.3234275 8.46526804,7.59085604 C8.03664687,7.85828457 7.55444806,8.0722274 6.96509396,8.0722274 Z M4.76841048,5.23748495 L4.76841048,4.59565647 L9.16177744,4.59565647 L9.16177744,5.23748495 L4.76841048,5.23748495 Z" id="Shape"></path>
                        <path d="M13.608722,8.0722274 C13.0729456,8.0722274 12.5907468,7.91177028 12.2157032,7.64434174 C11.8406597,7.37691321 11.5191939,7.00251327 11.3584609,6.57462761 C11.197728,6.14674196 11.036995,5.6118849 11.036995,5.02354213 C11.036995,4.43519935 11.1441503,3.953828 11.3584609,3.47245664 C11.5727715,2.99108528 11.8406597,2.67017104 12.2157032,2.40274251 C12.5907468,2.13531397 13.0729456,1.97485686 13.5551444,1.97485686 C14.0909209,1.97485686 14.5731197,2.08182827 14.9481632,2.3492568 C15.3232067,2.61668533 15.5910949,2.99108528 15.8054055,3.41897093 C16.0197161,3.84685658 16.0732937,4.38171365 16.0732937,4.97005642 C16.0732937,5.55839919 15.9661385,6.03977055 15.8054055,6.52114191 C15.6446726,7.00251327 15.3232067,7.3234275 14.9481632,7.59085604 C14.5731197,7.85828457 14.1444985,8.0722274 13.608722,8.0722274 Z M13.6622997,10.6395413 C13.3408338,10.6395413 13.0729456,10.5860556 12.8050574,10.5325699 C12.5371691,10.4255985 12.2692809,10.3186271 12.0013927,10.1046842 C11.7335044,9.89074142 11.5727715,9.67679859 11.4120386,9.35588435 L12.108548,8.98148441 C12.2692809,9.30239864 12.4835915,9.51634147 12.8050574,9.67679859 C13.0729456,9.83725571 13.3944115,9.89074142 13.7158773,9.89074142 C14.1444985,9.89074142 14.4659644,9.83725571 14.7338526,9.67679859 C15.0017408,9.51634147 15.1624738,9.30239864 15.3232067,8.98148441 C15.430362,8.66057017 15.4839396,8.28617022 15.4839396,7.85828457 L15.4839396,6.30719908 L15.5910949,6.30719908 L15.5910949,2.13531397 L16.2876043,2.13531397 L16.2876043,7.80479886 C16.2876043,7.96525598 16.2876043,8.1257131 16.2876043,8.28617022 C16.2876043,8.44662734 16.2876043,8.60708446 16.2340267,8.71405587 C16.180449,9.14194153 16.0197161,9.51634147 15.8054055,9.78377 C15.5910949,10.0511985 15.3232067,10.2651414 14.9481632,10.4255985 C14.5731197,10.5325699 14.1444985,10.6395413 13.6622997,10.6395413 Z M13.7158773,7.3234275 C14.1444985,7.3234275 14.4659644,7.21645609 14.7338526,7.00251327 C15.0017408,6.78857044 15.2160514,6.52114191 15.3232067,6.20022767 C15.430362,5.82582772 15.5375173,5.45142778 15.5375173,5.02354213 C15.5375173,4.59565647 15.4839396,4.16777082 15.3232067,3.84685658 C15.2160514,3.52594234 15.0017408,3.2050281 14.7338526,3.04457098 C14.4659644,2.83062816 14.1444985,2.72365675 13.7158773,2.72365675 C13.2872562,2.72365675 12.9657903,2.83062816 12.6979021,3.04457098 C12.4300138,3.25851381 12.2157032,3.52594234 12.108548,3.84685658 C12.0013927,4.22125653 11.8942374,4.59565647 11.8942374,5.02354213 C11.8942374,5.45142778 11.947815,5.87931343 12.108548,6.20022767 C12.2157032,6.57462761 12.4300138,6.84205615 12.6979021,7.05599897 C12.9657903,7.2699418 13.2872562,7.3234275 13.7158773,7.3234275 Z" id="Shape"></path>
                        <path d="M18.4307102,1.01211414 L18.4307102,0.102857128 L19.2343749,0.102857128 L19.2343749,1.01211414 L18.4307102,1.01211414 Z M18.4307102,7.91177028 L18.4307102,2.13531397 L19.2343749,2.13531397 L19.2343749,7.91177028 L18.4307102,7.91177028 Z" id="Shape"></path>
                        <path d="M23.7884747,8.0722274 C23.1991206,8.0722274 22.7169218,7.96525598 22.2883007,7.69782745 C21.8596795,7.43039892 21.5917913,7.05599897 21.323903,6.62811332 C21.1095925,6.14674196 21.0024372,5.6653706 21.0024372,5.02354213 C21.0024372,4.43519935 21.1095925,3.90034229 21.323903,3.41897093 C21.5382136,2.93759957 21.8596795,2.61668533 22.2883007,2.3492568 C22.7169218,2.08182827 23.1991206,1.97485686 23.7348971,1.97485686 C24.3242512,1.97485686 24.80645,2.08182827 25.2350712,2.3492568 C25.6636924,2.61668533 25.9315806,2.99108528 26.1994688,3.41897093 C26.4137794,3.90034229 26.5209347,4.38171365 26.5209347,5.02354213 C26.5209347,5.6118849 26.4137794,6.14674196 26.1994688,6.62811332 C25.9851582,7.10948468 25.6636924,7.43039892 25.2350712,7.69782745 C24.8600277,7.91177028 24.3778289,8.0722274 23.7884747,8.0722274 Z M23.7884747,7.2699418 C24.4314065,7.2699418 24.9136053,7.05599897 25.2350712,6.62811332 C25.5565371,6.20022767 25.71727,5.6653706 25.71727,4.97005642 C25.71727,4.27474223 25.5565371,3.73988517 25.2350712,3.31199952 C24.9136053,2.88411387 24.4314065,2.67017104 23.7884747,2.67017104 C23.3598536,2.67017104 22.9848101,2.77714245 22.7169218,2.93759957 C22.4490336,3.09805669 22.234723,3.41897093 22.0739901,3.73988517 C21.9132571,4.06079941 21.8596795,4.48868506 21.8596795,4.91657071 C21.8596795,5.6118849 22.0204124,6.14674196 22.3418783,6.57462761 C22.6633442,7.00251327 23.145543,7.2699418 23.7884747,7.2699418 Z" id="Shape"></path>
                        <path d="M28.288997,7.91177028 L28.288997,2.13531397 L28.9855064,2.13531397 L28.9855064,3.57942805 L29.0926617,3.57942805 L29.0926617,7.91177028 L28.288997,7.91177028 Z M32.4680534,7.91177028 L32.4680534,4.91657071 C32.4680534,4.59565647 32.4144757,4.27474223 32.3608981,4.0073137 C32.3073204,3.73988517 32.2001651,3.52594234 32.0930098,3.31199952 C31.9858546,3.09805669 31.771544,2.93759957 31.5572334,2.83062816 C31.3429228,2.72365675 31.0750346,2.67017104 30.8071463,2.67017104 C30.5392581,2.67017104 30.2713699,2.72365675 30.0570593,2.83062816 C29.8427487,2.93759957 29.6820158,3.04457098 29.5212828,3.25851381 C29.3605499,3.41897093 29.2533946,3.63291376 29.199817,3.90034229 C29.1462393,4.16777082 29.0926617,4.43519935 29.0926617,4.75611359 L28.5568852,4.64914218 C28.5568852,4.06079941 28.6640405,3.57942805 28.8783511,3.1515424 C29.0926617,2.72365675 29.3605499,2.45622821 29.7355934,2.24228539 C30.110637,2.02834256 30.5392581,1.92137115 30.9678793,1.92137115 C31.2893452,1.92137115 31.610811,1.97485686 31.8786993,2.08182827 C32.1465875,2.18879968 32.3608981,2.3492568 32.521631,2.50971392 C32.682364,2.67017104 32.8430969,2.88411387 32.9502522,3.1515424 C33.0574075,3.36548522 33.1645628,3.63291376 33.2181404,3.90034229 C33.2717181,4.16777082 33.2717181,4.43519935 33.2717181,4.70262789 L33.2717181,7.85828457 L32.4680534,7.85828457 L32.4680534,7.91177028 Z" id="Shape"></path>
                        <path d="M36.914998,8.0722274 C36.4863768,8.0722274 36.1113333,8.01874169 35.8434451,7.85828457 C35.5755568,7.69782745 35.3076686,7.48388462 35.2005133,7.21645609 C35.0397804,6.94902756 34.9862027,6.68159903 34.9862027,6.36068479 C34.9862027,6.03977055 35.0397804,5.77234202 35.2005133,5.55839919 C35.3076686,5.34445636 35.5219792,5.13051354 35.7362898,5.02354213 C35.9506003,4.91657071 36.2184886,4.75611359 36.4863768,4.70262789 C36.754265,4.64914218 37.1293086,4.54217077 37.4507744,4.48868506 C37.825818,4.43519935 38.1472838,4.38171365 38.4687497,4.32822794 C38.7902156,4.27474223 39.1116815,4.22125653 39.3795697,4.22125653 L39.1116815,4.38171365 C39.1116815,3.79337088 39.0045262,3.36548522 38.7902156,3.09805669 C38.575905,2.83062816 38.1472838,2.67017104 37.5579297,2.67017104 C37.1828862,2.67017104 36.8078427,2.77714245 36.5399545,2.93759957 C36.2720662,3.09805669 36.0577556,3.41897093 35.9506003,3.79337088 L35.2005133,3.57942805 C35.3076686,3.04457098 35.5755568,2.67017104 36.004178,2.40274251 C36.3792215,2.13531397 36.914998,1.97485686 37.5579297,1.97485686 C38.0937062,1.97485686 38.5223273,2.08182827 38.8973709,2.29577109 C39.2724144,2.50971392 39.5403026,2.77714245 39.7010356,3.1515424 C39.7546132,3.31199952 39.8081908,3.52594234 39.8617685,3.73988517 C39.9153461,3.953828 39.9153461,4.16777082 39.9153461,4.38171365 L39.9153461,7.96525598 L39.1116815,7.96525598 L39.1116815,6.52114191 L39.325992,6.62811332 C39.1116815,7.10948468 38.8437932,7.48388462 38.4151721,7.75131316 C37.9865509,7.91177028 37.4507744,8.0722274 36.914998,8.0722274 Z M36.9685756,7.37691321 C37.3436191,7.37691321 37.665085,7.3234275 37.9329732,7.16297038 C38.2008615,7.05599897 38.4151721,6.84205615 38.575905,6.62811332 C38.7366379,6.41417049 38.8437932,6.14674196 38.8973709,5.82582772 C38.9509485,5.6653706 38.9509485,5.45142778 38.9509485,5.23748495 C38.9509485,5.02354213 38.9509485,4.86308501 38.9509485,4.75611359 L39.2724144,4.91657071 C39.0045262,4.97005642 38.7366379,4.97005642 38.4151721,5.02354213 C38.0937062,5.07702783 37.7722403,5.07702783 37.5043521,5.13051354 C37.2364638,5.18399924 36.914998,5.23748495 36.7006874,5.29097066 C36.5399545,5.34445636 36.3792215,5.39794207 36.2184886,5.50491348 C36.0577556,5.6118849 35.9506003,5.71885631 35.8434451,5.82582772 C35.7362898,5.93279914 35.6827121,6.14674196 35.6827121,6.36068479 C35.6827121,6.52114191 35.7362898,6.68159903 35.7898674,6.84205615 C35.8970227,7.00251327 36.004178,7.10948468 36.2184886,7.21645609 C36.4327992,7.3234275 36.7006874,7.37691321 36.9685756,7.37691321 Z" id="Shape"></path>
                        <polygon id="Path" points="41.897719 7.91177028 41.897719 0.0493714214 42.7013837 0.0493714214 42.7013837 7.91177028"></polygon>
                        <path d="M49.2378565,8.0722274 C48.8092353,8.0722274 48.4341918,8.01874169 48.1663036,7.85828457 C47.8984154,7.69782745 47.6305271,7.48388462 47.5233718,7.21645609 C47.3626389,6.94902756 47.3090613,6.68159903 47.3090613,6.36068479 C47.3090613,6.03977055 47.3626389,5.77234202 47.5233718,5.55839919 C47.6305271,5.34445636 47.8448377,5.13051354 48.0591483,5.02354213 C48.2734589,4.91657071 48.5413471,4.75611359 48.8092353,4.70262789 C49.0771236,4.64914218 49.4521671,4.54217077 49.773633,4.48868506 C50.1486765,4.43519935 50.4701424,4.38171365 50.7916082,4.32822794 C51.1130741,4.27474223 51.43454,4.22125653 51.7024282,4.22125653 L51.43454,4.38171365 C51.43454,3.79337088 51.3273847,3.36548522 51.1130741,3.09805669 C50.8987635,2.83062816 50.4701424,2.67017104 49.8807883,2.67017104 C49.5057447,2.67017104 49.1307012,2.77714245 48.862813,2.93759957 C48.5949248,3.09805669 48.3806142,3.41897093 48.2734589,3.79337088 L47.5233718,3.57942805 C47.6305271,3.04457098 47.8984154,2.67017104 48.3270365,2.40274251 C48.7020801,2.13531397 49.2378565,1.97485686 49.8807883,1.97485686 C50.4165647,1.97485686 50.8451859,2.08182827 51.2202294,2.29577109 C51.5952729,2.50971392 51.8631612,2.77714245 52.0238941,3.1515424 C52.0774717,3.31199952 52.1310494,3.52594234 52.184627,3.73988517 C52.2382047,3.953828 52.2382047,4.16777082 52.2382047,4.38171365 L52.2382047,7.96525598 L51.43454,7.96525598 L51.43454,6.52114191 L51.6488506,6.62811332 C51.43454,7.10948468 51.1666518,7.48388462 50.7380306,7.75131316 C50.3094094,7.91177028 49.8272106,8.0722274 49.2378565,8.0722274 Z M49.3450118,7.37691321 C49.7200553,7.37691321 50.0415212,7.3234275 50.3094094,7.16297038 C50.5772977,7.05599897 50.7916082,6.84205615 50.9523412,6.62811332 C51.1130741,6.41417049 51.2202294,6.14674196 51.2738071,5.82582772 C51.3273847,5.6653706 51.3273847,5.45142778 51.3273847,5.23748495 C51.3273847,5.02354213 51.3273847,4.86308501 51.3273847,4.75611359 L51.6488506,4.91657071 C51.3809623,4.97005642 51.1130741,4.97005642 50.7916082,5.02354213 C50.4701424,5.07702783 50.1486765,5.07702783 49.8807883,5.13051354 C49.6129,5.18399924 49.2914342,5.23748495 49.0771236,5.29097066 C48.9163906,5.34445636 48.7556577,5.39794207 48.5949248,5.50491348 C48.4341918,5.6118849 48.3270365,5.71885631 48.2198812,5.82582772 C48.112726,5.93279914 48.0591483,6.14674196 48.0591483,6.36068479 C48.0591483,6.52114191 48.112726,6.68159903 48.1663036,6.84205615 C48.2734589,7.00251327 48.3806142,7.10948468 48.5949248,7.21645609 C48.7556577,7.3234275 49.0235459,7.37691321 49.3450118,7.37691321 Z" id="Shape"></path>
                        <path d="M54.1134223,7.91177028 L54.1134223,2.13531397 L54.8099317,2.13531397 L54.8099317,3.57942805 L54.8635093,3.57942805 L54.8635093,7.91177028 L54.1134223,7.91177028 Z M58.2924787,7.91177028 L58.2924787,4.91657071 C58.2924787,4.59565647 58.238901,4.27474223 58.1853234,4.0073137 C58.1317457,3.73988517 58.0245904,3.52594234 57.9174351,3.31199952 C57.8102798,3.09805669 57.5959693,2.93759957 57.3816587,2.83062816 C57.1673481,2.72365675 56.8994599,2.67017104 56.6315716,2.67017104 C56.3636834,2.67017104 56.0957952,2.72365675 55.8814846,2.83062816 C55.667174,2.93759957 55.5064411,3.04457098 55.3457081,3.25851381 C55.1849752,3.41897093 55.0778199,3.63291376 55.0242423,3.90034229 C54.9706646,4.16777082 54.917087,4.43519935 54.917087,4.75611359 L54.3813105,4.64914218 C54.3813105,4.06079941 54.4884658,3.57942805 54.7027764,3.1515424 C54.917087,2.72365675 55.1849752,2.45622821 55.5600187,2.24228539 C55.9350622,2.02834256 56.3636834,1.92137115 56.7923046,1.92137115 C57.1137704,1.92137115 57.4352363,1.97485686 57.7031246,2.08182827 C57.9710128,2.18879968 58.1853234,2.3492568 58.3460563,2.50971392 C58.5067892,2.67017104 58.6675222,2.88411387 58.7746775,3.1515424 C58.8818328,3.36548522 58.9889881,3.63291376 59.0425657,3.90034229 C59.0961433,4.16777082 59.0961433,4.43519935 59.0961433,4.70262789 L59.0961433,7.85828457 L58.2924787,7.85828457 L58.2924787,7.91177028 Z" id="Shape"></path>
                        <path d="M62.6858456,8.0722274 C62.2572244,8.0722274 61.8821809,8.01874169 61.6142927,7.85828457 C61.3464045,7.69782745 61.0785162,7.48388462 60.9713609,7.21645609 C60.810628,6.94902756 60.7570504,6.68159903 60.7570504,6.36068479 C60.7570504,6.03977055 60.810628,5.77234202 60.9713609,5.55839919 C61.0785162,5.34445636 61.2928268,5.13051354 61.5071374,5.02354213 C61.721448,4.91657071 61.9893362,4.75611359 62.2572244,4.70262789 C62.5251127,4.64914218 62.9001562,4.54217077 63.2216221,4.48868506 C63.5966656,4.43519935 63.9181315,4.38171365 64.293175,4.32822794 C64.6146409,4.27474223 64.9361067,4.22125653 65.203995,4.22125653 L64.8289514,4.38171365 C64.8289514,3.79337088 64.7217962,3.36548522 64.5074856,3.09805669 C64.293175,2.83062816 63.8645538,2.67017104 63.2751997,2.67017104 C62.9001562,2.67017104 62.5251127,2.77714245 62.2572244,2.93759957 C61.9893362,3.09805669 61.7750256,3.41897093 61.6678703,3.79337088 L60.9177833,3.57942805 C61.0249386,3.04457098 61.2928268,2.67017104 61.721448,2.40274251 C62.1500692,2.13531397 62.632268,1.97485686 63.2751997,1.97485686 C63.8109762,1.97485686 64.2395973,2.08182827 64.6146409,2.29577109 C64.9896844,2.50971392 65.2575726,2.77714245 65.4183056,3.1515424 C65.4718832,3.31199952 65.5254608,3.52594234 65.5790385,3.73988517 C65.6326161,3.953828 65.6326161,4.16777082 65.6326161,4.38171365 L65.6326161,7.96525598 L64.9361067,7.96525598 L64.9361067,6.52114191 L65.1504173,6.62811332 C64.9361067,7.10948468 64.6682185,7.48388462 64.2395973,7.75131316 C63.7573985,7.91177028 63.2751997,8.0722274 62.6858456,8.0722274 Z M62.7930009,7.37691321 C63.1680444,7.37691321 63.4895103,7.3234275 63.7573985,7.16297038 C64.0252868,7.05599897 64.2395973,6.84205615 64.4003303,6.62811332 C64.5610632,6.41417049 64.6682185,6.14674196 64.7217962,5.82582772 C64.7753738,5.6653706 64.7753738,5.45142778 64.7753738,5.23748495 C64.7753738,5.02354213 64.7753738,4.86308501 64.7753738,4.75611359 L65.0968397,4.91657071 C64.8289514,4.97005642 64.5610632,4.97005642 64.2395973,5.02354213 C63.9181315,5.07702783 63.5966656,5.07702783 63.3287774,5.13051354 C63.0073115,5.18399924 62.7394233,5.23748495 62.5251127,5.29097066 C62.3643797,5.34445636 62.2036468,5.39794207 62.0429139,5.50491348 C61.8821809,5.6118849 61.7750256,5.71885631 61.6678703,5.82582772 C61.5607151,5.93279914 61.5071374,6.14674196 61.5071374,6.36068479 C61.5071374,6.52114191 61.5607151,6.68159903 61.6142927,6.84205615 C61.721448,7.00251327 61.8286033,7.10948468 62.0429139,7.21645609 C62.2572244,7.3234275 62.471535,7.37691321 62.7930009,7.37691321 Z" id="Shape"></path>
                        <polygon id="Path" points="67.6685667 7.91177028 67.6685667 0.0493714214 68.4722314 0.0493714214 68.4722314 7.91177028"></polygon>
                        <polygon id="Path" points="71.4725795 10.4790842 72.5977101 7.43039892 72.5977101 8.33965593 70.0795607 2.13531397 70.9368031 2.13531397 73.0263313 7.3234275 72.7048654 7.3234275 74.6336606 2.13531397 75.4373253 2.13531397 72.3298219 10.4790842 71.4725795 10.4790842"></polygon>
                        <path d="M76.24099,2.77714245 L76.24099,2.08182827 L80.0450029,2.08182827 L80.0450029,2.77714245 L76.24099,2.77714245 Z M80.0450029,7.91177028 C79.723537,7.96525598 79.4020711,8.01874169 79.0806052,8.01874169 C78.7591394,8.01874169 78.4912511,7.91177028 78.2233629,7.80479886 C77.9554747,7.69782745 77.7947417,7.48388462 77.6340088,7.21645609 C77.5268535,7.00251327 77.4732759,6.78857044 77.4732759,6.57462761 C77.4732759,6.36068479 77.4732759,6.09325626 77.4732759,5.82582772 L77.4732759,0.53074278 L78.2769406,0.53074278 L78.2769406,5.77234202 C78.2769406,6.03977055 78.2769406,6.20022767 78.2769406,6.36068479 C78.2769406,6.52114191 78.3305182,6.68159903 78.3840958,6.78857044 C78.4912511,7.00251327 78.7055617,7.16297038 78.9734499,7.21645609 C79.2413382,7.2699418 79.6163817,7.2699418 79.9914252,7.16297038 L79.9914252,7.91177028 L80.0450029,7.91177028 Z" id="Shape"></path>
                        <path d="M81.8666428,1.01211414 L81.8666428,0.102857128 L82.6703075,0.102857128 L82.6703075,1.01211414 L81.8666428,1.01211414 Z M81.8666428,7.91177028 L81.8666428,2.13531397 L82.6703075,2.13531397 L82.6703075,7.91177028 L81.8666428,7.91177028 Z" id="Shape"></path>
                        <path d="M87.2244074,8.0722274 C86.6350533,8.0722274 86.1528545,7.96525598 85.7242333,7.69782745 C85.2956122,7.43039892 85.0277239,7.05599897 84.8134133,6.62811332 C84.5991028,6.14674196 84.4919475,5.6653706 84.4919475,5.02354213 C84.4919475,4.43519935 84.5991028,3.90034229 84.8134133,3.41897093 C85.0277239,2.93759957 85.3491898,2.61668533 85.7242333,2.3492568 C86.1528545,2.08182827 86.6350533,1.97485686 87.1708298,1.97485686 C87.7601839,1.97485686 88.2423827,2.13531397 88.7245815,2.40274251 C89.1532027,2.67017104 89.4746685,3.09805669 89.6354015,3.57942805 L88.8853144,3.84685658 C88.7245815,3.52594234 88.5102709,3.25851381 88.2423827,3.04457098 C87.9209168,2.83062816 87.5994509,2.77714245 87.2244074,2.77714245 C86.7957862,2.77714245 86.4743204,2.88411387 86.1528545,3.04457098 C85.8849663,3.25851381 85.6706557,3.52594234 85.5099227,3.84685658 C85.3491898,4.16777082 85.2956122,4.59565647 85.2956122,5.02354213 C85.2956122,5.71885631 85.4563451,6.25371337 85.777811,6.68159903 C86.0992768,7.10948468 86.5814757,7.3234275 87.1708298,7.3234275 C87.5458733,7.3234275 87.9209168,7.21645609 88.188805,7.05599897 C88.4566933,6.89554185 88.6710038,6.62811332 88.8317368,6.25371337 L89.6354015,6.4676562 C89.4210909,7.00251327 89.099625,7.37691321 88.6710038,7.64434174 C88.2423827,7.91177028 87.8137615,8.0722274 87.2244074,8.0722274 Z" id="Path"></path>
                        <path d="M93.492992,8.01874169 C92.7964826,8.01874169 92.2607061,7.85828457 91.8320849,7.59085604 C91.4034638,7.3234275 91.1355755,6.89554185 91.0284203,6.36068479 L91.8320849,6.25371337 C91.9392402,6.57462761 92.0999732,6.84205615 92.421439,7.05599897 C92.7429049,7.2699418 93.1179484,7.3234275 93.5465696,7.3234275 C93.9751908,7.3234275 94.3502343,7.21645609 94.5645449,7.05599897 C94.8324331,6.89554185 94.9395884,6.62811332 94.9395884,6.30719908 C94.9395884,6.14674196 94.8860108,5.98628484 94.8324331,5.87931343 C94.7788555,5.77234202 94.5645449,5.6653706 94.3502343,5.55839919 C94.1359237,5.45142778 93.7608802,5.34445636 93.2251037,5.23748495 C92.6893273,5.07702783 92.3142838,4.97005642 91.9928179,4.8095993 C91.671352,4.64914218 91.5106191,4.48868506 91.3498861,4.32822794 C91.2427308,4.16777082 91.1891532,3.90034229 91.1891532,3.63291376 C91.1891532,3.31199952 91.2963085,2.99108528 91.4570414,2.77714245 C91.6177744,2.50971392 91.8856626,2.3492568 92.2071285,2.18879968 C92.5285943,2.02834256 92.9036379,1.97485686 93.332259,1.97485686 C93.7608802,1.97485686 94.1359237,2.02834256 94.5109672,2.18879968 C94.8324331,2.3492568 95.153899,2.50971392 95.3682096,2.77714245 C95.5825202,3.04457098 95.6896754,3.31199952 95.7432531,3.63291376 L94.9395884,3.79337088 C94.8860108,3.47245664 94.7252778,3.2050281 94.4573896,2.99108528 C94.1895014,2.77714245 93.8144578,2.67017104 93.3858367,2.67017104 C92.9572155,2.67017104 92.6357496,2.72365675 92.3678614,2.88411387 C92.0999732,3.04457098 91.9928179,3.25851381 91.9928179,3.52594234 C91.9928179,3.68639946 92.0463955,3.79337088 92.1535508,3.90034229 C92.2607061,4.0073137 92.421439,4.11428511 92.6357496,4.22125653 C92.9036379,4.32822794 93.2251037,4.43519935 93.7073025,4.54217077 C94.243079,4.70262789 94.6717002,4.8095993 94.9395884,4.97005642 C95.2610543,5.13051354 95.4753649,5.29097066 95.5825202,5.50491348 C95.6896754,5.71885631 95.7968307,5.98628484 95.7968307,6.25371337 C95.7968307,6.78857044 95.5825202,7.21645609 95.2074766,7.53737033 C94.8324331,7.85828457 94.243079,8.01874169 93.492992,8.01874169 Z" id="Path"></path>
                    </g>
                    <g id="Group">
                        <path d="M28.1579666,9.99249085 C27.4056545,7.19889126 25.954767,4.67390701 23.4828844,2.79359959 C21.1722115,1.07446138 18.0554901,0 14.9925051,0 C11.0159984,0 7.30817454,1.557969 4.46013594,4.45901473 C1.77330706,7.14516819 0.21494631,10.7446138 0,14.5589517 L0,14.5589517 L0,15.2036286 L0,21.4892276 C1.61209733,15.9020285 4.40639936,8.75686026 14.0789833,9.40153709 C15.0462417,9.45526016 17.8405437,9.40153709 19.5063776,15.0424593 C19.6675874,15.6871362 20.3661629,17.7286128 23.8053038,17.5137205 C28.8028056,17.1913821 28.749069,12.2488598 28.1579666,9.99249085 Z" id="Shape" fill="url(#linearGradient-1)"></path>
                        <path d="M39.1202284,31.4817185 L31.3821613,31.4817185 C29.8238005,31.4817185 28.5878592,30.299811 28.4266495,28.8492881 C28.4803861,30.7295955 28.5341227,33.9529797 28.5341227,35.3497795 C28.5341227,39.647625 33.3166781,41.1518709 33.1017318,41.3667632 L39.173965,41.4204863 C41.8607939,41.4204863 44.0639936,39.2178404 44.0639936,36.4779639 C44.0639936,33.7380874 41.8607939,31.4817185 39.1202284,31.4817185 Z" id="Path" fill="url(#linearGradient-2)"></path>
                        <path d="M28.5341227,35.3497795 C28.5341227,33.469472 28.3729129,28.3657805 28.3729129,27.5599344 L28.3729129,13.215875 C28.1042301,15.2573516 26.9757619,17.2988282 23.7515673,17.5137205 C20.3124263,17.7286128 19.6675874,15.6334131 19.4526411,15.0424593 C19.3989045,14.9350132 19.3989045,14.8275671 19.3451679,14.7201209 C19.3451679,15.0424593 19.3451679,15.3647978 19.3451679,15.6334131 L19.3451679,34.1678719 C19.3451679,38.1433791 22.2469431,41.3130401 26.1697133,41.3667632 L32.8330489,41.4204863 C34.2839365,41.4204863 28.5341227,40.0236865 28.5341227,35.3497795 Z" id="Path" fill="url(#linearGradient-3)"></path>
                        <path d="M14.240193,9.40153709 C14.1864565,9.40153709 14.1327199,9.40153709 14.0789833,9.40153709 C4.40639936,8.75686026 1.61209733,15.9557515 0,21.4892276 L0,36.8003023 C0,39.5939019 2.20319968,41.9039939 4.94376513,41.9039939 C7.68433059,41.9039939 9.88753027,39.5939019 9.88753027,36.8003023 L9.88753027,15.4722439 C9.72632053,11.657906 12.0907299,9.50898323 14.240193,9.40153709 Z" id="Path" fill="url(#linearGradient-4)"></path>
                    </g>
                </g>
            </g>
        </g>
    </g>
</svg>