<?xml version="1.0" encoding="UTF-8"?>
<svg width="76px" height="28px" viewBox="0 0 76 28" version="1.1" xmlns="http://www.w3.org/2000/svg" xmlns:xlink="http://www.w3.org/1999/xlink">
    <!-- Generator: Sketch 64 (93537) - https://sketch.com -->
    <title>logo-h-color</title>
    <desc>Created with Sketch.</desc>
    <defs>
        <linearGradient x1="60.9783617%" y1="95.4928564%" x2="30.7891089%" y2="10.7360839%" id="linearGradient-1">
            <stop stop-color="#FF7B42" offset="5.304563%"></stop>
            <stop stop-color="#FFAB52" offset="87.06%"></stop>
        </linearGradient>
        <linearGradient x1="0.0641646489%" y1="49.8555556%" x2="99.9605327%" y2="49.8555556%" id="linearGradient-2">
            <stop stop-color="#002C94" offset="0.8641723%"></stop>
            <stop stop-color="#0052CC" offset="68.73%"></stop>
        </linearGradient>
        <linearGradient x1="50.2732631%" y1="29.8610215%" x2="49.3727652%" y2="98.6357527%" id="linearGradient-3">
            <stop stop-color="#1BB7DE" offset="0.7794335%"></stop>
            <stop stop-color="#59D9DE" offset="57.51%"></stop>
        </linearGradient>
        <linearGradient x1="38.3330591%" y1="97.1364534%" x2="55.0235395%" y2="27.047443%" id="linearGradient-4">
            <stop stop-color="#FF75CC" offset="0%"></stop>
            <stop stop-color="#DE2468" offset="82.65%"></stop>
        </linearGradient>
    </defs>
    <g id="Region-Admin---Mobile" stroke="none" stroke-width="1" fill="none" fill-rule="evenodd">
        <g id="Region-Admin---Home" transform="translate(-59.000000, -9.000000)" fill-rule="nonzero">
            <g id="Top-Nav" transform="translate(0.000000, -1.000000)">
                <g id="logo-h-color" transform="translate(59.000000, 10.000000)">
                    <g id="Group">
                        <path d="M18.480959,6.58259965 C17.9841591,4.74443975 17.0402391,3.08015984 15.4007992,1.8629999 C13.9103993,0.720359962 11.8486794,0 9.83663948,0 C7.25327962,0 4.79411975,1.04327995 2.93111985,2.90627985 C1.19231994,4.69475975 0.149039992,7.02971963 0.0248399987,9.5385595 L0,9.5385595 L0,9.96083948 L0,14.1091193 C1.04327995,10.4576395 2.90627985,5.7380397 9.24047951,6.16031968 C9.88631948,6.20999967 11.6996394,6.16031968 12.7925993,9.86147948 C12.9167993,10.2837595 13.3639193,11.6499594 15.5995192,11.5009194 C18.903239,11.3021994 18.878399,8.04815958 18.480959,6.58259965 Z" id="Shape" fill="url(#linearGradient-1)"></path>
                        <path d="M25.6845587,20.6668789 L20.5923589,20.6668789 C19.573919,20.6668789 18.754199,19.896839 18.629999,18.928079 C18.654839,20.1452389 18.704519,22.2566388 18.704519,23.2005588 C18.704519,26.0323186 21.8591989,27.0259186 21.7101589,27.1749586 L25.6845587,27.1997986 C27.4481986,27.1997986 28.8889185,25.7342386 28.8889185,23.9457587 C28.8889185,22.1572788 27.4481986,20.6668789 25.6845587,20.6668789 Z" id="Path" fill="url(#linearGradient-2)"></path>
                        <path d="M18.704519,23.2005588 C18.704519,21.9585588 18.605159,18.629999 18.605159,18.0835191 L18.605159,8.69399954 C18.431279,10.0353595 17.6860791,11.3767194 15.5995192,11.5009194 C13.3390793,11.6499594 12.8919593,10.2837595 12.7925993,9.86147948 C12.7677593,9.78695949 12.7429193,9.73727949 12.7429193,9.66275949 C12.7429193,9.88631948 12.7429193,10.0850395 12.7429193,10.2589195 L12.7429193,22.4056788 C12.7429193,24.9890387 14.6307592,27.1004386 17.2389591,27.1252786 L21.5859589,27.1749586 C22.4801988,27.1749586 18.704519,26.2807186 18.704519,23.2005588 Z" id="Path" fill="url(#linearGradient-3)"></path>
                        <path d="M9.33983951,6.16031968 C9.31499951,6.16031968 9.26531951,6.16031968 9.24047951,6.16031968 C2.90627985,5.7380397 1.04327995,10.4576395 0,14.1091193 L0,24.1693187 C0,26.0074786 1.46555992,27.5227186 3.25403983,27.5227186 C5.04251974,27.5227186 6.50807966,26.0323186 6.50807966,24.1693187 L6.50807966,10.1347195 C6.35903967,7.6507196 7.92395958,6.23483967 9.33983951,6.16031968 Z" id="Path" fill="url(#linearGradient-4)"></path>
                    </g>
                    <g id="Group" transform="translate(25.833599, 3.974400)" fill="#0052CC">
                        <path d="M3.17951983,3.08015984 C3.62663981,2.90627985 4.12343978,2.80691985 4.69475975,2.80691985 L4.69475975,4.79411975 C4.44635977,4.76927975 4.29731977,4.76927975 4.22279978,4.76927975 C3.60179981,4.76927975 3.12983984,4.94315974 2.78207985,5.29091972 C2.43431987,5.6386797 2.26043988,6.16031968 2.26043988,6.85583964 L2.26043988,10.3582795 L0.0993599948,10.3582795 L0.0993599948,2.90627985 L2.16107989,2.90627985 L2.16107989,3.8998798 C2.38463987,3.52727981 2.73239986,3.25403983 3.17951983,3.08015984 Z" id="Path"></path>
                        <path d="M14.0594393,2.90627985 L14.0594393,10.3334395 L11.9977194,10.3334395 L11.9977194,9.4888795 C11.4512394,10.1347195 10.6811994,10.4576395 9.68759949,10.4576395 C8.99207953,10.4576395 8.34623956,10.3085995 7.79975959,9.98567948 C7.22843962,9.66275949 6.78131964,9.21563952 6.45839966,8.64431955 C6.13547968,8.07299958 5.98643969,7.40231961 5.98643969,6.63227965 C5.98643969,5.86223969 6.13547968,5.19155973 6.45839966,4.62023976 C6.78131964,4.04891979 7.22843962,3.60179981 7.79975959,3.27887983 C8.37107956,2.95595984 8.99207953,2.80691985 9.68759949,2.80691985 C10.6315194,2.80691985 11.3767194,3.10499984 11.9231994,3.70115981 L11.9231994,2.90627985 L14.0594393,2.90627985 Z M11.4015594,8.12267957 C11.7493194,7.75007959 11.9480394,7.25327962 11.9480394,6.63227965 C11.9480394,6.01127968 11.7741594,5.51447971 11.4015594,5.14187973 C11.0537994,4.76927975 10.5818394,4.57055976 10.0353595,4.57055976 C9.4888795,4.57055976 9.01691953,4.76927975 8.66915954,5.14187973 C8.32139956,5.51447971 8.12267957,6.01127968 8.12267957,6.63227965 C8.12267957,7.25327962 8.29655956,7.75007959 8.66915954,8.12267957 C9.01691953,8.49527955 9.4888795,8.69399954 10.0353595,8.69399954 C10.5818394,8.66915954 11.0537994,8.49527955 11.4015594,8.12267957 Z" id="Shape"></path>
                        <path d="M23.2750788,3.62663981 C23.8463987,4.17311978 24.1196387,4.99283974 24.1196387,6.08579968 L24.1196387,10.3334395 L21.9585588,10.3334395 L21.9585588,6.40871966 C21.9585588,5.81255969 21.8343589,5.39027972 21.5611189,5.09219973 C21.3127189,4.79411975 20.9401189,4.64507976 20.4433189,4.64507976 C19.896839,4.64507976 19.474559,4.81895975 19.151639,5.14187973 C18.828719,5.48963971 18.679679,5.98643969 18.679679,6.63227965 L18.679679,10.3085995 L16.5185991,10.3085995 L16.5185991,2.90627985 L18.580319,2.90627985 L18.580319,3.7756798 C18.853559,3.45275982 19.226159,3.22919983 19.648439,3.05531984 C20.0707189,2.88143985 20.5426789,2.80691985 21.0394789,2.80691985 C21.9585588,2.78207985 22.7037588,3.08015984 23.2750788,3.62663981 Z" id="Path"></path>
                        <path d="M27.2743186,9.78695949 C26.8023586,9.33983951 26.5787986,8.71883954 26.5787986,7.89911959 L26.5787986,0.0745199961 L28.7398785,0.0745199961 L28.7398785,7.75007959 C28.7398785,8.07299958 28.8143985,8.29655956 28.9882785,8.47043956 C29.1373185,8.64431955 29.3857185,8.71883954 29.6837984,8.71883954 C29.7831584,8.71883954 29.9073584,8.69399954 30.0315584,8.66915954 C30.1557584,8.64431955 30.2302784,8.61947955 30.3047984,8.56979955 L30.4041584,10.2340795 C30.0563984,10.3582795 29.6837984,10.4079595 29.2863585,10.4079595 C28.3921185,10.4576395 27.7462785,10.2340795 27.2743186,9.78695949 Z" id="Path"></path>
                        <path d="M39.4459179,2.90627985 L39.4459179,10.3334395 L37.384198,10.3334395 L37.384198,9.4888795 C36.8377181,10.1347195 36.0676781,10.4576395 35.0740782,10.4576395 C34.3785582,10.4576395 33.7327182,10.3085995 33.1862383,9.98567948 C32.6149183,9.66275949 32.1677983,9.21563952 31.8448783,8.64431955 C31.5219583,8.07299958 31.3729184,7.40231961 31.3729184,6.63227965 C31.3729184,5.86223969 31.5219583,5.19155973 31.8448783,4.62023976 C32.1677983,4.04891979 32.6149183,3.60179981 33.1862383,3.27887983 C33.7575582,2.95595984 34.3785582,2.80691985 35.0740782,2.80691985 C36.0179981,2.80691985 36.7631981,3.10499984 37.309678,3.70115981 L37.309678,2.90627985 L39.4459179,2.90627985 Z M36.7880381,8.12267957 C37.1357981,7.75007959 37.334518,7.25327962 37.334518,6.63227965 C37.334518,6.01127968 37.160638,5.51447971 36.7880381,5.14187973 C36.4402781,4.76927975 35.9683181,4.57055976 35.4218381,4.57055976 C34.8753582,4.57055976 34.4033982,4.76927975 34.0556382,5.14187973 C33.7078782,5.51447971 33.5091582,6.01127968 33.5091582,6.63227965 C33.5091582,7.25327962 33.6830382,7.75007959 34.0556382,8.12267957 C34.4033982,8.49527955 34.8753582,8.69399954 35.4218381,8.69399954 C35.9683181,8.66915954 36.4402781,8.49527955 36.7880381,8.12267957 Z" id="Shape"></path>
                        <path d="M48.1895975,3.27887983 C48.7609174,3.60179981 49.2080374,4.04891979 49.5309574,4.62023976 C49.8538774,5.19155973 50.0029174,5.86223969 50.0029174,6.63227965 C50.0029174,7.40231961 49.8538774,8.07299958 49.5309574,8.64431955 C49.2080374,9.21563952 48.7609174,9.66275949 48.1895975,9.98567948 C47.6182775,10.3085995 46.9972775,10.4576395 46.3017576,10.4576395 C45.2833176,10.4576395 44.4884377,10.1347195 43.9667977,9.4888795 L43.9667977,10.3334395 L41.9050778,10.3334395 L41.9050778,0.0745199961 L44.0661577,0.0745199961 L44.0661577,3.67631981 C44.6126377,3.08015984 45.3578376,2.78207985 46.3017576,2.78207985 C46.9972775,2.78207985 47.6182775,2.95595984 48.1895975,3.27887983 Z M47.2953575,8.12267957 C47.6431175,7.75007959 47.8169975,7.25327962 47.8169975,6.63227965 C47.8169975,6.01127968 47.6431175,5.51447971 47.2953575,5.14187973 C46.9475975,4.76927975 46.4756376,4.57055976 45.9291576,4.57055976 C45.3826776,4.57055976 44.9107176,4.76927975 44.5629577,5.14187973 C44.2151977,5.51447971 44.0413177,6.01127968 44.0413177,6.63227965 C44.0413177,7.25327962 44.2151977,7.75007959 44.5629577,8.12267957 C44.9107176,8.49527955 45.3826776,8.69399954 45.9291576,8.69399954 C46.5004776,8.66915954 46.9475975,8.49527955 47.2953575,8.12267957 Z" id="Shape"></path>
                    </g>
                </g>
            </g>
        </g>
    </g>
</svg>